G75*
G70*
%OFA0B0*%
%FSLAX25Y25*%
%IPPOS*%
%LPD*%
%AMOC8*
5,1,8,0,0,1.08239X$1,22.5*
%
%ADD17C,0.02362*%
%ADD19C,0.06000*%
%ADD20C,0.06693*%
%ADD21R,0.06693X0.06693*%
%ADD22O,0.06693X0.06693*%
%ADD35C,0.13780*%
%ADD36C,0.07087*%
%ADD37R,0.04331X0.04331*%
%ADD38C,0.04331*%
%ADD39O,0.04331X0.09449*%
%ADD45C,0.13000*%
%ADD50C,0.27559*%
%ADD62C,0.02756*%
%ADD89O,0.07283X0.06693*%
%ADD90C,0.02700*%
%ADD91C,0.05906*%
%ADD92C,0.02400*%
%ADD93C,0.03937*%
X0000000Y0000000D02*
%LPD*%
G01*
D17*
X0297120Y0070059D03*
X0303321Y0050748D03*
X0353337Y0050784D03*
X0319955Y0048110D03*
X0324581Y0048110D03*
X0333144Y0048110D03*
X0341904Y0048110D03*
D19*
X0237251Y0475789D03*
X0237251Y0490789D03*
X0150007Y0503151D03*
X0150007Y0518151D03*
D20*
X0245285Y0141379D03*
X0245285Y0170915D03*
D21*
X0408865Y0381911D03*
D22*
X0398865Y0381911D03*
X0388865Y0381911D03*
X0378865Y0381911D03*
X0368865Y0381911D03*
X0358865Y0381911D03*
D20*
X0144455Y0526360D03*
X0079567Y0177549D03*
X0079567Y0187549D03*
X0079567Y0197549D03*
X0079567Y0207549D03*
X0079567Y0217549D03*
X0089567Y0177549D03*
X0089567Y0187549D03*
X0089567Y0197549D03*
X0089567Y0207549D03*
X0089567Y0217549D03*
X0099567Y0177549D03*
X0099567Y0187549D03*
X0099567Y0197549D03*
X0099567Y0207549D03*
X0099567Y0217549D03*
X0225243Y0459037D03*
X0096857Y0486241D03*
X0116936Y0311045D03*
X0049567Y0127549D03*
X0049567Y0137549D03*
X0049567Y0147549D03*
X0049567Y0157549D03*
X0049567Y0167549D03*
X0059567Y0127549D03*
X0059567Y0137549D03*
X0059567Y0147549D03*
X0059567Y0157549D03*
X0059567Y0167549D03*
X0069567Y0127549D03*
X0069567Y0137549D03*
X0069567Y0147549D03*
X0069567Y0157549D03*
X0069567Y0167549D03*
D19*
X0117920Y0503151D03*
X0117920Y0518151D03*
D20*
X0272841Y0254155D03*
D19*
X0442329Y0500395D03*
X0442329Y0515395D03*
D20*
X0193156Y0526596D03*
D19*
X0083077Y0530730D03*
X0102369Y0530730D03*
X0440951Y0475789D03*
X0440951Y0490789D03*
X0125991Y0503151D03*
X0125991Y0518151D03*
X0052721Y0495293D03*
X0052721Y0510293D03*
D35*
X0060398Y0581810D03*
X0196027Y0581810D03*
X0382642Y0581810D03*
X0545831Y0581810D03*
D36*
X0062957Y0541650D03*
X0076727Y0541650D03*
X0088937Y0541650D03*
X0100747Y0541650D03*
X0112557Y0541650D03*
X0124367Y0541650D03*
X0136177Y0541650D03*
X0147987Y0541650D03*
X0159797Y0541650D03*
X0171607Y0541650D03*
X0183817Y0541650D03*
X0062957Y0559370D03*
X0076727Y0559370D03*
X0088937Y0559370D03*
X0100747Y0559370D03*
X0112557Y0559370D03*
X0124367Y0559370D03*
X0136177Y0559370D03*
X0147987Y0559370D03*
X0159797Y0559370D03*
X0171607Y0559370D03*
X0183817Y0559370D03*
X0288744Y0541650D03*
X0300554Y0541650D03*
X0312364Y0541650D03*
X0324174Y0541650D03*
X0335994Y0541650D03*
X0347804Y0541650D03*
X0359614Y0541650D03*
X0371424Y0541650D03*
X0288744Y0559370D03*
X0300554Y0559370D03*
X0312364Y0559370D03*
X0324174Y0559370D03*
X0335994Y0559370D03*
X0347804Y0559370D03*
X0359614Y0559370D03*
X0371424Y0559370D03*
X0394834Y0541650D03*
X0408614Y0541650D03*
X0420834Y0541650D03*
X0432644Y0541650D03*
X0444454Y0541650D03*
X0456264Y0541650D03*
X0468074Y0541650D03*
X0479884Y0541650D03*
X0491694Y0541650D03*
X0503504Y0541650D03*
X0515714Y0541650D03*
X0529494Y0541650D03*
X0543274Y0541650D03*
X0394834Y0559370D03*
X0408614Y0559370D03*
X0420834Y0559370D03*
X0432644Y0559370D03*
X0444454Y0559370D03*
X0456264Y0559370D03*
X0468074Y0559370D03*
X0479884Y0559370D03*
X0491694Y0559370D03*
X0503504Y0559370D03*
X0515714Y0559370D03*
X0529494Y0559370D03*
X0543274Y0559370D03*
X0207248Y0541650D03*
X0219058Y0541650D03*
X0230868Y0541650D03*
X0242678Y0541650D03*
X0254498Y0541650D03*
X0266308Y0541650D03*
X0207248Y0559370D03*
X0219058Y0559370D03*
X0230868Y0559370D03*
X0242678Y0559370D03*
X0254498Y0559370D03*
X0266308Y0559370D03*
D20*
X0303353Y0305336D03*
X0357054Y0322304D03*
X0128353Y0299627D03*
X0475991Y0162226D03*
D19*
X0501778Y0475001D03*
X0501778Y0490001D03*
D37*
X0571266Y0457403D03*
D38*
X0568117Y0450513D03*
X0564967Y0457403D03*
X0561818Y0450513D03*
X0558668Y0457403D03*
D39*
X0579337Y0453958D03*
X0550597Y0453958D03*
D20*
X0452526Y0319273D03*
X0303353Y0316163D03*
D19*
X0246778Y0475749D03*
X0246778Y0490749D03*
D20*
X0464692Y0447659D03*
X0475991Y0151064D03*
X0261424Y0265375D03*
D21*
X0532743Y0404942D03*
D20*
X0532743Y0395100D03*
X0540617Y0395100D03*
X0540617Y0404942D03*
D35*
X0551286Y0423722D03*
X0551286Y0376320D03*
D20*
X0256349Y0170906D03*
X0487802Y0151064D03*
D17*
X0234091Y0381397D03*
X0236158Y0384842D03*
X0239110Y0380216D03*
X0253087Y0380511D03*
D45*
X0553550Y0205867D03*
X0553550Y0115867D03*
D19*
X0503550Y0185867D03*
X0503550Y0175867D03*
X0503550Y0165867D03*
X0503550Y0155867D03*
X0503550Y0145867D03*
X0503550Y0135867D03*
X0516936Y0489450D03*
X0516936Y0474450D03*
D20*
X0019567Y0177549D03*
X0019567Y0187549D03*
X0019567Y0197549D03*
X0019567Y0207549D03*
X0019567Y0217549D03*
X0029567Y0177549D03*
X0029567Y0187549D03*
X0029567Y0197549D03*
X0029567Y0207549D03*
X0029567Y0217549D03*
X0039567Y0177549D03*
X0039567Y0187549D03*
X0039567Y0197549D03*
X0039567Y0207549D03*
X0039567Y0217549D03*
X0171306Y0526596D03*
D17*
X0406667Y0072652D03*
X0410112Y0070585D03*
X0405486Y0067632D03*
X0405782Y0053656D03*
D20*
X0116936Y0299627D03*
X0182054Y0526556D03*
X0188589Y0300415D03*
D19*
X0072093Y0495474D03*
X0072093Y0510474D03*
D50*
X0019685Y0020079D03*
D20*
X0322492Y0300812D03*
X0487802Y0162226D03*
X0519495Y0507304D03*
X0019567Y0077549D03*
X0019567Y0087549D03*
X0019567Y0097549D03*
X0019567Y0107549D03*
X0019567Y0117549D03*
X0029567Y0077549D03*
X0029567Y0087549D03*
X0029567Y0097549D03*
X0029567Y0107549D03*
X0029567Y0117549D03*
X0039567Y0077549D03*
X0039567Y0087549D03*
X0039567Y0097549D03*
X0039567Y0107549D03*
X0039567Y0117549D03*
D19*
X0080125Y0495553D03*
X0080125Y0510553D03*
X0498130Y0500177D03*
X0498130Y0515177D03*
D20*
X0256306Y0141360D03*
D19*
X0161345Y0502993D03*
X0161345Y0517993D03*
X0142133Y0503151D03*
X0142133Y0518151D03*
D20*
X0073038Y0406911D03*
D50*
X0586614Y0605906D03*
D20*
X0464180Y0151064D03*
D50*
X0586614Y0020079D03*
D20*
X0482881Y0507698D03*
G36*
G01*
X0537268Y0341703D02*
X0537268Y0341703D01*
G75*
G02*
X0543949Y0341703I0003341J-003341D01*
G01*
X0545619Y0340033D01*
G75*
G02*
X0545619Y0333352I-003341J-003341D01*
G01*
X0545619Y0333352D01*
G75*
G02*
X0538938Y0333352I-003341J0003341D01*
G01*
X0537268Y0335022D01*
G75*
G02*
X0537268Y0341703I0003341J0003341D01*
G01*
G37*
G36*
G01*
X0544748Y0350365D02*
X0544748Y0350365D01*
G75*
G02*
X0551429Y0350365I0003341J-003341D01*
G01*
X0553100Y0348694D01*
G75*
G02*
X0553100Y0342013I-003341J-003341D01*
G01*
X0553100Y0342013D01*
G75*
G02*
X0546418Y0342013I-003341J0003341D01*
G01*
X0544748Y0343683D01*
G75*
G02*
X0544748Y0350365I0003341J0003341D01*
G01*
G37*
G36*
G01*
X0569158Y0350365D02*
X0569158Y0350365D01*
G75*
G02*
X0575839Y0350365I0003341J-003341D01*
G01*
X0577509Y0348694D01*
G75*
G02*
X0577509Y0342013I-003341J-003341D01*
G01*
X0577509Y0342013D01*
G75*
G02*
X0570828Y0342013I-003341J0003341D01*
G01*
X0569158Y0343683D01*
G75*
G02*
X0569158Y0350365I0003341J0003341D01*
G01*
G37*
G36*
G01*
X0559315Y0341703D02*
X0559315Y0341703D01*
G75*
G02*
X0565996Y0341703I0003341J-003341D01*
G01*
X0567667Y0340033D01*
G75*
G02*
X0567667Y0333352I-003341J-003341D01*
G01*
X0567667Y0333352D01*
G75*
G02*
X0560985Y0333352I-003341J0003341D01*
G01*
X0559315Y0335022D01*
G75*
G02*
X0559315Y0341703I0003341J0003341D01*
G01*
G37*
G36*
G01*
X0522701Y0350365D02*
X0522701Y0350365D01*
G75*
G02*
X0529382Y0350365I0003341J-003341D01*
G01*
X0531053Y0348694D01*
G75*
G02*
X0531053Y0342013I-003341J-003341D01*
G01*
X0531053Y0342013D01*
G75*
G02*
X0524371Y0342013I-003341J0003341D01*
G01*
X0522701Y0343683D01*
G75*
G02*
X0522701Y0350365I0003341J0003341D01*
G01*
G37*
X0049567Y0177549D03*
X0049567Y0187549D03*
X0049567Y0197549D03*
X0049567Y0207549D03*
X0049567Y0217549D03*
X0059567Y0177549D03*
X0059567Y0187549D03*
X0059567Y0197549D03*
X0059567Y0207549D03*
X0059567Y0217549D03*
X0069567Y0177549D03*
X0069567Y0187549D03*
X0069567Y0197549D03*
X0069567Y0207549D03*
X0069567Y0217549D03*
X0188589Y0311045D03*
X0143904Y0490769D03*
D17*
X0058515Y0472005D03*
X0063732Y0439623D03*
X0084332Y0439692D03*
X0086271Y0447104D03*
X0090700Y0418167D03*
D19*
X0450203Y0500395D03*
X0450203Y0515395D03*
D20*
X0079567Y0127549D03*
X0079567Y0137549D03*
X0079567Y0147549D03*
X0079567Y0157549D03*
X0079567Y0167549D03*
X0089567Y0127549D03*
X0089567Y0137549D03*
X0089567Y0147549D03*
X0089567Y0157549D03*
X0089567Y0167549D03*
X0099567Y0127549D03*
X0099567Y0137549D03*
X0099567Y0147549D03*
X0099567Y0157549D03*
X0099567Y0167549D03*
D62*
X0311909Y0519882D03*
X0307972Y0519882D03*
X0304035Y0519882D03*
X0300098Y0519882D03*
X0273917Y0369291D03*
X0277854Y0369291D03*
X0291831Y0369291D03*
X0295768Y0369291D03*
D50*
X0586420Y0283071D03*
D19*
X0468707Y0500789D03*
X0468707Y0515789D03*
X0083169Y0521260D03*
X0102461Y0521260D03*
D20*
X0019567Y0127549D03*
X0019567Y0137549D03*
X0019567Y0147549D03*
X0019567Y0157549D03*
X0019567Y0167549D03*
X0029567Y0127549D03*
X0029567Y0137549D03*
X0029567Y0147549D03*
X0029567Y0157549D03*
X0029567Y0167549D03*
X0039567Y0127549D03*
X0039567Y0137549D03*
X0039567Y0147549D03*
X0039567Y0157549D03*
X0039567Y0167549D03*
D19*
X0133865Y0503151D03*
X0133865Y0518151D03*
X0099178Y0495195D03*
X0099178Y0510195D03*
D20*
X0128353Y0310961D03*
D19*
X0247408Y0501930D03*
X0247408Y0516930D03*
X0063747Y0495986D03*
X0063747Y0510986D03*
D50*
X0019685Y0605906D03*
D19*
X0184259Y0502993D03*
X0184259Y0517993D03*
D20*
X0303353Y0293919D03*
D19*
X0528790Y0474785D03*
X0528790Y0489785D03*
D20*
X0272841Y0265375D03*
D19*
X0529731Y0500555D03*
X0529731Y0515555D03*
D20*
X0261424Y0276399D03*
X0261424Y0254352D03*
X0424810Y0506123D03*
D19*
X0238235Y0502088D03*
X0238235Y0517088D03*
X0433077Y0500041D03*
X0433077Y0485041D03*
D17*
X0319129Y0246970D03*
X0316739Y0275612D03*
X0320085Y0275612D03*
X0323432Y0275612D03*
X0326778Y0275612D03*
X0314332Y0281317D03*
X0326778Y0242541D03*
X0321266Y0242541D03*
X0317034Y0242541D03*
X0311522Y0242541D03*
D21*
X0483559Y0035391D03*
D22*
X0483559Y0025391D03*
X0473559Y0035391D03*
X0473559Y0025391D03*
X0463559Y0035391D03*
X0463559Y0025391D03*
X0453559Y0035391D03*
X0453559Y0025391D03*
X0443559Y0035391D03*
X0443559Y0025391D03*
X0433559Y0035391D03*
X0433559Y0025391D03*
X0423559Y0035391D03*
X0423559Y0025391D03*
X0413559Y0035391D03*
X0413559Y0025391D03*
X0403559Y0035391D03*
X0403559Y0025391D03*
X0393559Y0035391D03*
X0393559Y0025391D03*
X0383559Y0035391D03*
X0383559Y0025391D03*
X0373559Y0035391D03*
X0373559Y0025391D03*
D19*
X0090715Y0495553D03*
X0090715Y0510553D03*
X0409849Y0501379D03*
X0409849Y0516379D03*
D20*
X0272841Y0276399D03*
D19*
X0491936Y0474804D03*
X0491936Y0489804D03*
D50*
X0019685Y0283071D03*
D20*
X0424613Y0517541D03*
X0155637Y0526399D03*
X0418786Y0329470D03*
X0430713Y0349627D03*
D19*
X0460637Y0500986D03*
X0460637Y0515986D03*
X0169810Y0502875D03*
X0169810Y0517875D03*
D20*
X0464180Y0162226D03*
D17*
X0472977Y0091918D03*
X0465753Y0093591D03*
X0473823Y0095756D03*
X0472977Y0099201D03*
X0472682Y0102548D03*
X0465753Y0103827D03*
X0470910Y0108945D03*
X0465753Y0111504D03*
X0489079Y0083256D03*
X0473036Y0084437D03*
D19*
X0509849Y0499804D03*
X0509849Y0514804D03*
D20*
X0345971Y0322265D03*
D19*
X0482585Y0474608D03*
X0482585Y0489608D03*
D17*
X0058415Y0229672D03*
X0058415Y0277953D03*
X0058415Y0333858D03*
X0058415Y0376772D03*
X0073376Y0235138D03*
G36*
G01*
X0505026Y0425021D02*
X0510341Y0425021D01*
G75*
G02*
X0511326Y0424037I0000000J-000984D01*
G01*
X0511326Y0419312D01*
G75*
G02*
X0510341Y0418328I-000984J0000000D01*
G01*
X0505026Y0418328D01*
G75*
G02*
X0504042Y0419312I0000000J0000984D01*
G01*
X0504042Y0424037D01*
G75*
G02*
X0505026Y0425021I0000984J0000000D01*
G01*
G37*
D89*
X0507684Y0411832D03*
X0507684Y0401990D03*
X0507684Y0392147D03*
X0507684Y0382304D03*
D19*
X0051306Y0521281D03*
X0070597Y0521281D03*
D17*
X0313392Y0319312D03*
X0477172Y0074037D03*
X0500007Y0097265D03*
X0451188Y0352383D03*
X0138983Y0066950D03*
D90*
X0358277Y0299655D03*
D17*
X0112605Y0133092D03*
X0232290Y0346084D03*
X0147152Y0403958D03*
X0483373Y0310848D03*
X0469416Y0335139D03*
X0582290Y0403958D03*
X0245873Y0087619D03*
X0354455Y0415060D03*
X0258274Y0371281D03*
X0461030Y0138210D03*
X0500007Y0211832D03*
X0148333Y0335848D03*
X0546857Y0181123D03*
X0507487Y0201596D03*
X0466739Y0466950D03*
X0146266Y0443761D03*
X0245676Y0341458D03*
X0468511Y0549726D03*
X0201306Y0443092D03*
X0505223Y0002974D03*
X0291837Y0592738D03*
X0147153Y0463187D03*
X0261808Y0536212D03*
X0045676Y0251596D03*
X0431995Y0320592D03*
X0293944Y0362147D03*
X0274613Y0523545D03*
X0462605Y0176793D03*
D91*
X0169416Y0440927D03*
D17*
X0508471Y0035257D03*
X0337978Y0347916D03*
X0335833Y0552304D03*
X0326739Y0381084D03*
D92*
X0331742Y0271545D03*
D17*
X0462605Y0227186D03*
X0439416Y0444549D03*
D92*
X0278451Y0085257D03*
D17*
X0322841Y0448840D03*
X0383077Y0433682D03*
X0276975Y0550710D03*
X0525991Y0430730D03*
X0230322Y0222856D03*
X0511030Y0335848D03*
D92*
X0274813Y0069340D03*
D17*
X0054239Y0475218D03*
X0365440Y0527423D03*
X0353255Y0592147D03*
X0157763Y0389745D03*
X0488196Y0296478D03*
X0414928Y0526832D03*
X0370479Y0479942D03*
X0453747Y0470100D03*
X0141345Y0296478D03*
X0047406Y0492458D03*
X0486129Y0607797D03*
X0499613Y0024037D03*
X0350637Y0319616D03*
X0178747Y0114588D03*
X0216542Y0014588D03*
X0371266Y0451596D03*
X0535440Y0105927D03*
X0467566Y0310651D03*
X0319790Y0607501D03*
X0063589Y0548840D03*
X0089574Y0287521D03*
X0248314Y0422974D03*
D90*
X0314064Y0231939D03*
D17*
X0541739Y0069312D03*
X0456798Y0476202D03*
X0072841Y0055927D03*
X0174770Y0379194D03*
X0280715Y0244509D03*
X0212605Y0414076D03*
X0100400Y0029155D03*
X0512999Y0437029D03*
X0489377Y0241753D03*
X0481011Y0388702D03*
X0195282Y0556517D03*
X0251680Y0235848D03*
X0054337Y0380336D03*
X0281207Y0523348D03*
X0586227Y0373643D03*
X0355715Y0460297D03*
X0442133Y0081517D03*
X0338629Y0388761D03*
X0009409Y0174084D03*
X0507487Y0076793D03*
X0107093Y0480927D03*
X0429731Y0414293D03*
X0225597Y0342147D03*
X0053156Y0449627D03*
X0162014Y0478367D03*
X0124692Y0440848D03*
X0057881Y0073643D03*
X0329731Y0294509D03*
X0435518Y0459037D03*
X0226700Y0325139D03*
X0103058Y0119312D03*
D91*
X0177723Y0429785D03*
D17*
X0332290Y0244903D03*
X0211424Y0295297D03*
D90*
X0338592Y0299655D03*
D17*
X0511818Y0137423D03*
X0323077Y0374194D03*
X0167763Y0397777D03*
X0490558Y0320100D03*
X0111818Y0251202D03*
X0391542Y0440572D03*
X0140007Y0389470D03*
X0480223Y0458682D03*
D92*
X0145049Y0290718D03*
D17*
X0468550Y0416163D03*
X0045282Y0404745D03*
X0254731Y0094903D03*
X0141345Y0311832D03*
D92*
X0266939Y0069340D03*
D17*
X0211030Y0390671D03*
X0030715Y0387029D03*
X0507487Y0261832D03*
X0333471Y0433486D03*
X0094495Y0551497D03*
X0347803Y0346125D03*
X0387408Y0299627D03*
X0523589Y0026596D03*
X0137605Y0329647D03*
X0325794Y0525808D03*
X0096857Y0267738D03*
X0009455Y0380730D03*
X0451306Y0422738D03*
X0029140Y0333486D03*
X0461818Y0115769D03*
X0312920Y0550297D03*
X0512605Y0176399D03*
X0241247Y0206419D03*
X0459062Y0292147D03*
X0135341Y0393024D03*
X0219731Y0351556D03*
X0175400Y0075415D03*
X0228747Y0206320D03*
X0508963Y0357304D03*
X0302093Y0325548D03*
X0083963Y0390572D03*
X0427959Y0079549D03*
X0211424Y0310257D03*
X0228353Y0059470D03*
X0084455Y0408682D03*
X0459455Y0270493D03*
X0426385Y0002777D03*
X0331739Y0498564D03*
X0316936Y0002974D03*
X0093511Y0381123D03*
X0271168Y0030631D03*
X0435932Y0302285D03*
X0370833Y0520100D03*
X0009455Y0429942D03*
X0094495Y0333486D03*
X0505518Y0052777D03*
X0412211Y0387423D03*
X0267329Y0060257D03*
X0195833Y0411871D03*
X0261818Y0344509D03*
X0228353Y0142541D03*
X0028353Y0572068D03*
X0178457Y0339430D03*
X0271660Y0226793D03*
X0397566Y0336990D03*
X0521266Y0597265D03*
X0542920Y0464588D03*
X0200322Y0416793D03*
X0357585Y0003171D03*
X0231503Y0235454D03*
X0258904Y0451675D03*
X0137999Y0336537D03*
X0118117Y0478367D03*
X0518904Y0034273D03*
X0158865Y0002974D03*
X0303156Y0268919D03*
X0356739Y0553525D03*
X0357585Y0024430D03*
X0511424Y0320493D03*
X0100400Y0431616D03*
X0371660Y0066950D03*
X0257411Y0339980D03*
X0085243Y0512501D03*
X0180619Y0367049D03*
X0285518Y0362237D03*
X0045282Y0453564D03*
X0587408Y0434273D03*
X0267329Y0530375D03*
X0198038Y0114588D03*
X0540164Y0051596D03*
X0098038Y0607108D03*
X0238589Y0339785D03*
X0411030Y0413013D03*
X0216700Y0476793D03*
X0155912Y0478171D03*
X0583077Y0500808D03*
X0391385Y0334391D03*
X0224121Y0591753D03*
X0298353Y0362186D03*
X0361030Y0047659D03*
D92*
X0331899Y0279694D03*
D17*
X0459849Y0241753D03*
X0479416Y0415966D03*
X0200499Y0014982D03*
X0138294Y0476399D03*
X0600007Y0174037D03*
X0513182Y0379549D03*
X0359652Y0433682D03*
X0258826Y0472423D03*
X0137211Y0081320D03*
X0236621Y0141753D03*
X0453548Y0436243D03*
X0265361Y0095690D03*
X0106158Y0363435D03*
X0103845Y0345592D03*
X0451975Y0334667D03*
X0339731Y0517856D03*
X0552369Y0540179D03*
X0600007Y0242934D03*
X0366094Y0324092D03*
X0432290Y0459175D03*
X0189278Y0563899D03*
X0385046Y0079942D03*
X0110341Y0002974D03*
X0371660Y0079942D03*
X0393314Y0607108D03*
X0507881Y0190572D03*
X0526257Y0040444D03*
X0440558Y0318131D03*
D93*
X0184259Y0473013D03*
D17*
X0265164Y0606812D03*
X0108176Y0106222D03*
X0277959Y0523446D03*
D92*
X0225203Y0288210D03*
D17*
X0121857Y0376891D03*
X0053944Y0274037D03*
X0045676Y0307108D03*
X0228353Y0091360D03*
X0209928Y0449037D03*
X0258668Y0392147D03*
X0380617Y0003171D03*
X0390164Y0053171D03*
X0149906Y0304942D03*
X0027959Y0434667D03*
X0469692Y0016556D03*
X0569692Y0551596D03*
X0113392Y0285848D03*
D92*
X0243707Y0110651D03*
D17*
X0560637Y0026399D03*
X0436131Y0478761D03*
X0125558Y0370060D03*
X0192836Y0353275D03*
D92*
X0373530Y0016655D03*
D17*
X0243314Y0317344D03*
X0374908Y0493623D03*
X0206306Y0607108D03*
X0397349Y0313997D03*
X0136503Y0472974D03*
X0478747Y0280730D03*
D92*
X0244101Y0115375D03*
D17*
X0390518Y0319616D03*
X0237802Y0321675D03*
X0490361Y0337816D03*
X0539967Y0040966D03*
X0454731Y0076005D03*
X0481109Y0225612D03*
X0433432Y0315612D03*
X0179180Y0411045D03*
X0385046Y0063801D03*
X0249219Y0526399D03*
X0292034Y0002777D03*
X0009455Y0252777D03*
X0274022Y0342934D03*
D92*
X0296365Y0024726D03*
D17*
X0088196Y0345297D03*
X0142329Y0380651D03*
X0546857Y0085454D03*
X0228983Y0510257D03*
X0509455Y0064194D03*
X0121070Y0350218D03*
X0479140Y0335749D03*
X0439770Y0436832D03*
X0145774Y0399135D03*
X0009455Y0508682D03*
X0118117Y0465769D03*
X0243984Y0323917D03*
X0094200Y0328466D03*
X0451148Y0460454D03*
X0150794Y0113407D03*
X0094101Y0363801D03*
X0442526Y0053171D03*
X0196857Y0035454D03*
X0296266Y0365454D03*
X0294101Y0041950D03*
X0224416Y0117344D03*
X0009455Y0144509D03*
X0256207Y0087816D03*
X0473235Y0174430D03*
D91*
X0200046Y0430179D03*
X0177802Y0418682D03*
D17*
X0527959Y0450021D03*
D92*
X0259291Y0521949D03*
D17*
X0249810Y0218230D03*
X0036417Y0561319D03*
X0345282Y0583092D03*
X0439672Y0387521D03*
X0118511Y0550415D03*
X0262999Y0235060D03*
X0267625Y0524037D03*
X0379731Y0312816D03*
X0222940Y0336438D03*
X0275892Y0582108D03*
X0073629Y0576694D03*
X0303156Y0250808D03*
X0551975Y0261045D03*
X0201483Y0002482D03*
X0522251Y0321773D03*
X0263491Y0002974D03*
X0138392Y0427580D03*
X0213196Y0588013D03*
X0191030Y0508486D03*
X0410341Y0395690D03*
X0466542Y0459175D03*
X0297349Y0551005D03*
X0183668Y0550257D03*
X0346857Y0532659D03*
X0480814Y0351104D03*
X0174022Y0448407D03*
X0389377Y0016556D03*
X0535833Y0036438D03*
X0261424Y0285848D03*
X0389180Y0550021D03*
X0047736Y0515768D03*
X0228353Y0138210D03*
X0478353Y0254352D03*
X0366188Y0551478D03*
X0173944Y0410887D03*
X0286424Y0064096D03*
X0555125Y0406714D03*
X0245381Y0549135D03*
X0179534Y0448545D03*
X0066936Y0028761D03*
X0050203Y0224726D03*
X0182192Y0059667D03*
X0301975Y0239785D03*
D91*
X0169337Y0429706D03*
D17*
X0031109Y0496871D03*
X0541739Y0353564D03*
X0147743Y0606517D03*
D93*
X0199574Y0487777D03*
D92*
X0489773Y0176033D03*
D17*
X0113786Y0115769D03*
X0403156Y0583486D03*
X0449455Y0386990D03*
X0385164Y0527383D03*
X0145046Y0413643D03*
X0600007Y0311832D03*
X0431975Y0330927D03*
X0191444Y0340277D03*
X0412605Y0446084D03*
X0429337Y0388210D03*
D92*
X0331896Y0264982D03*
D17*
X0258707Y0488879D03*
X0058471Y0003663D03*
X0056601Y0394017D03*
X0418392Y0337068D03*
D92*
X0230322Y0252490D03*
D17*
X0400007Y0329551D03*
X0470085Y0213801D03*
X0054337Y0425218D03*
X0166936Y0296478D03*
X0600007Y0498840D03*
X0145577Y0455927D03*
X0468629Y0350887D03*
X0231739Y0422777D03*
X0428550Y0446675D03*
X0071109Y0413486D03*
X0247251Y0094509D03*
X0600007Y0429942D03*
X0404731Y0302094D03*
X0500007Y0237816D03*
X0292526Y0234667D03*
X0445873Y0018525D03*
X0384259Y0054745D03*
X0462605Y0198446D03*
X0251188Y0112619D03*
X0498629Y0463407D03*
X0548826Y0042541D03*
X0279140Y0556950D03*
X0168235Y0410848D03*
D91*
X0435479Y0449824D03*
D17*
X0038983Y0036241D03*
X0053156Y0318131D03*
X0586227Y0469312D03*
X0534259Y0162226D03*
X0132979Y0484962D03*
X0537802Y0062226D03*
X0545282Y0519706D03*
X0432093Y0343033D03*
X0147644Y0449234D03*
X0516148Y0359076D03*
X0169298Y0448367D03*
X0561660Y0185808D03*
X0363314Y0573879D03*
X0337999Y0411143D03*
X0199022Y0447462D03*
X0089081Y0481123D03*
X0120479Y0336537D03*
X0495282Y0036241D03*
X0148235Y0330828D03*
X0600007Y0567738D03*
X0270873Y0097659D03*
D93*
X0208511Y0497226D03*
D17*
X0093314Y0588801D03*
X0382605Y0513801D03*
X0247342Y0061099D03*
X0391385Y0520454D03*
X0125833Y0418486D03*
X0009455Y0321675D03*
D91*
X0169337Y0418801D03*
D17*
X0390558Y0477186D03*
D92*
X0327172Y0015867D03*
D17*
X0149810Y0408682D03*
X0333471Y0462226D03*
X0482979Y0581419D03*
D92*
X0444891Y0231939D03*
D17*
X0322841Y0405927D03*
D92*
X0284458Y0366978D03*
D17*
X0509849Y0109864D03*
X0505814Y0439490D03*
X0505125Y0300021D03*
X0280322Y0323643D03*
X0138688Y0442639D03*
X0410833Y0316991D03*
X0253550Y0322068D03*
X0386896Y0507580D03*
X0395282Y0394903D03*
D91*
X0143944Y0430612D03*
D17*
X0291739Y0323249D03*
X0009455Y0479155D03*
X0479692Y0463092D03*
X0270322Y0537383D03*
X0210007Y0426478D03*
X0258077Y0549332D03*
X0184259Y0366950D03*
X0235833Y0002974D03*
X0303944Y0582698D03*
D92*
X0228353Y0283879D03*
D17*
X0234652Y0117738D03*
X0224022Y0036241D03*
X0571266Y0373249D03*
X0453156Y0312619D03*
X0111424Y0155139D03*
X0131109Y0113407D03*
X0345833Y0340717D03*
X0507093Y0230730D03*
X0198589Y0404037D03*
X0009455Y0075612D03*
X0323629Y0502777D03*
X0337119Y0323682D03*
D91*
X0177759Y0441005D03*
D17*
X0361818Y0393722D03*
X0378156Y0558682D03*
X0497251Y0349234D03*
X0377172Y0393722D03*
X0045282Y0349627D03*
X0575991Y0234273D03*
X0259455Y0078958D03*
X0089967Y0232895D03*
X0094889Y0322659D03*
X0278668Y0362237D03*
X0073274Y0383289D03*
X0194574Y0398564D03*
X0235046Y0325493D03*
X0431700Y0437226D03*
X0311818Y0238604D03*
X0271660Y0203171D03*
D92*
X0251663Y0250994D03*
D17*
X0185837Y0377541D03*
X0315459Y0524923D03*
X0331344Y0341282D03*
D90*
X0453944Y0296871D03*
D17*
X0543707Y0133092D03*
X0443314Y0064982D03*
X0581818Y0132619D03*
X0142172Y0550651D03*
X0488589Y0354056D03*
X0412408Y0461635D03*
X0261030Y0227974D03*
X0209337Y0408564D03*
X0195184Y0541064D03*
X0442526Y0607108D03*
D92*
X0444891Y0237844D03*
D17*
X0502369Y0322462D03*
X0600007Y0105139D03*
X0479928Y0549824D03*
X0329140Y0479549D03*
X0090951Y0227383D03*
X0568117Y0081123D03*
X0261030Y0204745D03*
X0406148Y0527423D03*
X0266385Y0340179D03*
X0139672Y0322068D03*
X0400007Y0451990D03*
X0126278Y0465730D03*
X0355479Y0479982D03*
X0090951Y0310651D03*
X0468511Y0387029D03*
X0548826Y0228367D03*
X0600696Y0377482D03*
X0180164Y0497108D03*
X0439672Y0583879D03*
X0259449Y0053248D03*
X0147743Y0577285D03*
X0440164Y0352383D03*
X0215755Y0357145D03*
X0498038Y0200021D03*
X0112211Y0205139D03*
X0179534Y0096478D03*
X0212605Y0340966D03*
X0259062Y0422462D03*
X0415243Y0470060D03*
D92*
X0418215Y0401497D03*
D17*
X0396660Y0506517D03*
X0447507Y0463270D03*
X0094981Y0515547D03*
D92*
X0312254Y0079942D03*
X0279184Y0064588D03*
D17*
X0335243Y0419214D03*
D92*
X0263704Y0125662D03*
X0281581Y0340697D03*
X0285442Y0243750D03*
X0328679Y0338868D03*
X0335877Y0081517D03*
X0328790Y0081517D03*
X0244101Y0060749D03*
X0271705Y0116952D03*
X0241050Y0060651D03*
X0265404Y0108720D03*
X0265513Y0102274D03*
X0234455Y0060749D03*
X0473672Y0011045D03*
D17*
X0256353Y0106320D03*
X0256610Y0114194D03*
D92*
X0237802Y0060651D03*
X0265404Y0105533D03*
X0482684Y0237057D03*
X0492529Y0171309D03*
X0340784Y0340212D03*
D17*
X0339219Y0310493D03*
X0334101Y0426990D03*
D92*
X0449148Y0236914D03*
X0333471Y0304745D03*
D17*
X0348254Y0352857D03*
X0370725Y0307255D03*
X0459377Y0308722D03*
X0327999Y0315058D03*
X0334140Y0318830D03*
X0425440Y0319037D03*
X0428550Y0337226D03*
X0386326Y0312133D03*
X0429799Y0315898D03*
X0177763Y0376793D03*
X0168278Y0323321D03*
X0234190Y0148673D03*
X0234379Y0497541D03*
X0178949Y0398932D03*
X0167389Y0326134D03*
X0204984Y0462132D03*
X0237310Y0151104D03*
X0261818Y0198053D03*
X0262211Y0157501D03*
X0331110Y0323247D03*
D92*
X0266784Y0124843D03*
D17*
X0338810Y0414184D03*
D92*
X0287501Y0240904D03*
X0291216Y0318159D03*
D17*
X0338810Y0414184D03*
D92*
X0269754Y0121874D03*
D17*
X0337431Y0417234D03*
D92*
X0290471Y0237934D03*
D17*
X0332821Y0325652D03*
X0337431Y0417234D03*
D92*
X0295416Y0318159D03*
X0238392Y0308584D03*
D17*
X0451857Y0327068D03*
D92*
X0222054Y0300808D03*
D17*
X0426857Y0483801D03*
X0209495Y0359130D03*
X0368707Y0431911D03*
D92*
X0231546Y0086241D03*
D17*
X0368374Y0395468D03*
D92*
X0406700Y0081534D03*
X0064770Y0482206D03*
D17*
X0373826Y0377383D03*
D92*
X0203927Y0356967D03*
D17*
X0515361Y0079155D03*
D92*
X0231546Y0216556D03*
D17*
X0511030Y0306320D03*
D92*
X0254829Y0363210D03*
X0206273Y0319706D03*
D17*
X0207638Y0297022D03*
X0205717Y0364523D03*
X0247802Y0418092D03*
X0255912Y0525100D03*
X0205717Y0367108D03*
X0250558Y0418210D03*
X0255991Y0527501D03*
D92*
X0090860Y0330730D03*
D17*
X0090700Y0412477D03*
X0090700Y0364445D03*
D92*
X0336549Y0235801D03*
X0296818Y0333139D03*
X0296857Y0240179D03*
X0295719Y0081123D03*
D17*
X0377251Y0508367D03*
D92*
X0515703Y0195778D03*
X0513319Y0197580D03*
D17*
X0364576Y0023055D03*
D90*
X0364576Y0056348D03*
D17*
X0364970Y0006123D03*
X0179534Y0018919D03*
X0364970Y0016854D03*
D92*
X0350443Y0081123D03*
D17*
X0253156Y0101596D03*
X0293806Y0061143D03*
X0531109Y0052777D03*
D92*
X0316979Y0079942D03*
X0250892Y0086930D03*
X0257136Y0297659D03*
X0497152Y0363112D03*
X0260486Y0303370D03*
X0265361Y0343820D03*
X0255420Y0342442D03*
X0247100Y0303370D03*
X0251188Y0291360D03*
X0493724Y0368623D03*
X0188239Y0316556D03*
D17*
X0235046Y0242934D03*
X0188309Y0345297D03*
X0473786Y0467659D03*
X0473707Y0465100D03*
X0471955Y0370138D03*
X0469396Y0370138D03*
X0361030Y0304253D03*
D92*
X0352049Y0306402D03*
D17*
X0415676Y0461281D03*
D92*
X0415755Y0409273D03*
X0442448Y0310572D03*
X0373865Y0308879D03*
D17*
X0445282Y0434667D03*
X0491778Y0459155D03*
X0420912Y0466635D03*
X0465203Y0474706D03*
D92*
X0396857Y0299627D03*
X0446562Y0303466D03*
D17*
X0404142Y0317188D03*
X0228676Y0501556D03*
X0332014Y0316667D03*
X0176015Y0398621D03*
X0167753Y0329558D03*
X0202211Y0461123D03*
X0194399Y0394507D03*
X0240164Y0152974D03*
D92*
X0253845Y0263013D03*
X0288077Y0343844D03*
X0288239Y0303365D03*
X0519298Y0367738D03*
D17*
X0198922Y0329133D03*
X0455322Y0329509D03*
D92*
X0278550Y0346008D03*
X0500105Y0360848D03*
X0270897Y0294134D03*
X0275047Y0303365D03*
D17*
X0411791Y0305599D03*
D92*
X0492133Y0305533D03*
D17*
X0106292Y0374810D03*
D93*
X0145873Y0322358D03*
X0122450Y0460285D03*
D17*
X0086034Y0484269D03*
X0528750Y0357895D03*
D92*
X0215605Y0369698D03*
X0435049Y0079576D03*
X0214353Y0397838D03*
X0217313Y0395887D03*
X0431505Y0079576D03*
D17*
X0531899Y0357895D03*
D92*
X0218944Y0368446D03*
D17*
X0142723Y0354509D03*
D92*
X0153747Y0322856D03*
X0182684Y0297445D03*
X0153170Y0335809D03*
X0204897Y0348151D03*
X0486621Y0370887D03*
D17*
X0134180Y0376911D03*
X0406306Y0331911D03*
X0198904Y0363092D03*
X0200715Y0353722D03*
D92*
X0222349Y0341458D03*
D17*
X0220282Y0355730D03*
X0378432Y0322934D03*
X0365452Y0320927D03*
X0346168Y0496970D03*
X0194613Y0291675D03*
X0157133Y0322659D03*
D92*
X0211160Y0352184D03*
X0232487Y0301596D03*
D17*
X0130479Y0358958D03*
D92*
X0240738Y0274399D03*
X0258766Y0364686D03*
D17*
X0349613Y0299627D03*
X0369339Y0310649D03*
D92*
X0460983Y0311604D03*
D17*
X0178654Y0329549D03*
X0425164Y0329273D03*
X0428156Y0307009D03*
X0333983Y0504352D03*
X0336424Y0312915D03*
X0439101Y0323249D03*
X0202881Y0362100D03*
X0226171Y0412400D03*
X0472644Y0345572D03*
D92*
X0247940Y0249726D03*
X0245788Y0300413D03*
D17*
X0241660Y0334871D03*
X0441837Y0303367D03*
X0314574Y0305041D03*
X0270164Y0340769D03*
X0350987Y0358064D03*
X0353511Y0358090D03*
X0222804Y0377462D03*
X0449121Y0425415D03*
X0343414Y0425021D03*
X0319731Y0328231D03*
X0409180Y0323570D03*
X0200018Y0393474D03*
X0207868Y0462757D03*
X0199737Y0390134D03*
X0210558Y0464312D03*
D93*
X0159547Y0452067D03*
X0159547Y0460531D03*
X0159554Y0407797D03*
X0159554Y0401104D03*
X0189526Y0400710D03*
X0189574Y0407600D03*
X0189574Y0452383D03*
X0189574Y0460257D03*
D92*
X0265404Y0111908D03*
D17*
X0428629Y0458564D03*
X0425423Y0471146D03*
X0150518Y0496360D03*
X0337605Y0430927D03*
M02*
