G75*
G70*
%OFA0B0*%
%FSLAX25Y25*%
%IPPOS*%
%LPD*%
%AMOC8*
5,1,8,0,0,1.08239X$1,22.5*
%
%ADD104O,0.00000X0.00000*%
X0000000Y0000000D02*
%LPD*%
G01*
D104*
X0175453Y0284520D03*
X0179291Y0284126D03*
X0182716Y0284520D03*
X0185591Y0284520D03*
X0189113Y0284520D03*
X0197283Y0284520D03*
X0200826Y0284520D03*
X0203622Y0284520D03*
X0207638Y0284126D03*
X0212264Y0284126D03*
X0217579Y0284126D03*
X0222205Y0284126D03*
X0225748Y0280464D03*
X0225748Y0277728D03*
X0225748Y0275050D03*
X0225374Y0271823D03*
X0225748Y0266684D03*
X0225374Y0262866D03*
X0225748Y0257846D03*
X0225748Y0255287D03*
X0225374Y0250563D03*
X0225374Y0246331D03*
X0225374Y0242886D03*
X0225748Y0239638D03*
X0225748Y0216606D03*
G36*
G01*
X0448554Y0240681D02*
X0448554Y0241665D01*
G75*
G02*
X0449046Y0242158I0000492J0000000D01*
G01*
X0449046Y0242158D01*
G75*
G02*
X0449538Y0241665I0000000J-000492D01*
G01*
X0449538Y0240681D01*
G75*
G02*
X0449046Y0240189I-000492J0000000D01*
G01*
X0449046Y0240189D01*
G75*
G02*
X0448554Y0240681I0000000J0000492D01*
G01*
G37*
G36*
G01*
X0445207Y0241665D02*
X0445207Y0240681D01*
G75*
G02*
X0444715Y0240189I-000492J0000000D01*
G01*
X0444715Y0240189D01*
G75*
G02*
X0444223Y0240681I0000000J0000492D01*
G01*
X0444223Y0241665D01*
G75*
G02*
X0444715Y0242158I0000492J0000000D01*
G01*
X0444715Y0242158D01*
G75*
G02*
X0445207Y0241665I0000000J-000492D01*
G01*
G37*
G36*
G01*
X0440877Y0241665D02*
X0440877Y0240681D01*
G75*
G02*
X0440384Y0240189I-000492J0000000D01*
G01*
X0440384Y0240189D01*
G75*
G02*
X0439892Y0240681I0000000J0000492D01*
G01*
X0439892Y0241665D01*
G75*
G02*
X0440384Y0242158I0000492J0000000D01*
G01*
X0440384Y0242158D01*
G75*
G02*
X0440877Y0241665I0000000J-000492D01*
G01*
G37*
G36*
G01*
X0436546Y0241665D02*
X0436546Y0240681D01*
G75*
G02*
X0436054Y0240189I-000492J0000000D01*
G01*
X0436054Y0240189D01*
G75*
G02*
X0435562Y0240681I0000000J0000492D01*
G01*
X0435562Y0241665D01*
G75*
G02*
X0436054Y0242158I0000492J0000000D01*
G01*
X0436054Y0242158D01*
G75*
G02*
X0436546Y0241665I0000000J-000492D01*
G01*
G37*
G36*
G01*
X0432215Y0241665D02*
X0432215Y0240681D01*
G75*
G02*
X0431723Y0240189I-000492J0000000D01*
G01*
X0431723Y0240189D01*
G75*
G02*
X0431231Y0240681I0000000J0000492D01*
G01*
X0431231Y0241665D01*
G75*
G02*
X0431723Y0242158I0000492J0000000D01*
G01*
X0431723Y0242158D01*
G75*
G02*
X0432215Y0241665I0000000J-000492D01*
G01*
G37*
G36*
G01*
X0427884Y0241665D02*
X0427884Y0240681D01*
G75*
G02*
X0427392Y0240189I-000492J0000000D01*
G01*
X0427392Y0240189D01*
G75*
G02*
X0426900Y0240681I0000000J0000492D01*
G01*
X0426900Y0241665D01*
G75*
G02*
X0427392Y0242158I0000492J0000000D01*
G01*
X0427392Y0242158D01*
G75*
G02*
X0427884Y0241665I0000000J-000492D01*
G01*
G37*
G36*
G01*
X0423554Y0241665D02*
X0423554Y0240681D01*
G75*
G02*
X0423062Y0240189I-000492J0000000D01*
G01*
X0423062Y0240189D01*
G75*
G02*
X0422569Y0240681I0000000J0000492D01*
G01*
X0422569Y0241665D01*
G75*
G02*
X0423062Y0242158I0000492J0000000D01*
G01*
X0423062Y0242158D01*
G75*
G02*
X0423554Y0241665I0000000J-000492D01*
G01*
G37*
G36*
G01*
X0419223Y0241665D02*
X0419223Y0240681D01*
G75*
G02*
X0418731Y0240189I-000492J0000000D01*
G01*
X0418731Y0240189D01*
G75*
G02*
X0418239Y0240681I0000000J0000492D01*
G01*
X0418239Y0241665D01*
G75*
G02*
X0418731Y0242158I0000492J0000000D01*
G01*
X0418731Y0242158D01*
G75*
G02*
X0419223Y0241665I0000000J-000492D01*
G01*
G37*
G36*
G01*
X0414892Y0241665D02*
X0414892Y0240681D01*
G75*
G02*
X0414400Y0240189I-000492J0000000D01*
G01*
X0414400Y0240189D01*
G75*
G02*
X0413908Y0240681I0000000J0000492D01*
G01*
X0413908Y0241665D01*
G75*
G02*
X0414400Y0242158I0000492J0000000D01*
G01*
X0414400Y0242158D01*
G75*
G02*
X0414892Y0241665I0000000J-000492D01*
G01*
G37*
G36*
G01*
X0410562Y0241665D02*
X0410562Y0240681D01*
G75*
G02*
X0410069Y0240189I-000492J0000000D01*
G01*
X0410069Y0240189D01*
G75*
G02*
X0409577Y0240681I0000000J0000492D01*
G01*
X0409577Y0241665D01*
G75*
G02*
X0410069Y0242158I0000492J0000000D01*
G01*
X0410069Y0242158D01*
G75*
G02*
X0410562Y0241665I0000000J-000492D01*
G01*
G37*
G36*
G01*
X0406231Y0241665D02*
X0406231Y0240681D01*
G75*
G02*
X0405739Y0240189I-000492J0000000D01*
G01*
X0405739Y0240189D01*
G75*
G02*
X0405247Y0240681I0000000J0000492D01*
G01*
X0405247Y0241665D01*
G75*
G02*
X0405739Y0242158I0000492J0000000D01*
G01*
X0405739Y0242158D01*
G75*
G02*
X0406231Y0241665I0000000J-000492D01*
G01*
G37*
G36*
G01*
X0401900Y0241665D02*
X0401900Y0240681D01*
G75*
G02*
X0401408Y0240189I-000492J0000000D01*
G01*
X0401408Y0240189D01*
G75*
G02*
X0400916Y0240681I0000000J0000492D01*
G01*
X0400916Y0241665D01*
G75*
G02*
X0401408Y0242158I0000492J0000000D01*
G01*
X0401408Y0242158D01*
G75*
G02*
X0401900Y0241665I0000000J-000492D01*
G01*
G37*
G36*
G01*
X0397570Y0241665D02*
X0397570Y0240681D01*
G75*
G02*
X0397077Y0240189I-000492J0000000D01*
G01*
X0397077Y0240189D01*
G75*
G02*
X0396585Y0240681I0000000J0000492D01*
G01*
X0396585Y0241665D01*
G75*
G02*
X0397077Y0242158I0000492J0000000D01*
G01*
X0397077Y0242158D01*
G75*
G02*
X0397570Y0241665I0000000J-000492D01*
G01*
G37*
G36*
G01*
X0393239Y0241665D02*
X0393239Y0240681D01*
G75*
G02*
X0392747Y0240189I-000492J0000000D01*
G01*
X0392747Y0240189D01*
G75*
G02*
X0392255Y0240681I0000000J0000492D01*
G01*
X0392255Y0241665D01*
G75*
G02*
X0392747Y0242158I0000492J0000000D01*
G01*
X0392747Y0242158D01*
G75*
G02*
X0393239Y0241665I0000000J-000492D01*
G01*
G37*
G36*
G01*
X0388908Y0241665D02*
X0388908Y0240681D01*
G75*
G02*
X0388416Y0240189I-000492J0000000D01*
G01*
X0388416Y0240189D01*
G75*
G02*
X0387924Y0240681I0000000J0000492D01*
G01*
X0387924Y0241665D01*
G75*
G02*
X0388416Y0242158I0000492J0000000D01*
G01*
X0388416Y0242158D01*
G75*
G02*
X0388908Y0241665I0000000J-000492D01*
G01*
G37*
G36*
G01*
X0384577Y0241665D02*
X0384577Y0240681D01*
G75*
G02*
X0384085Y0240189I-000492J0000000D01*
G01*
X0384085Y0240189D01*
G75*
G02*
X0383593Y0240681I0000000J0000492D01*
G01*
X0383593Y0241665D01*
G75*
G02*
X0384085Y0242158I0000492J0000000D01*
G01*
X0384085Y0242158D01*
G75*
G02*
X0384577Y0241665I0000000J-000492D01*
G01*
G37*
G36*
G01*
X0380247Y0241665D02*
X0380247Y0240681D01*
G75*
G02*
X0379755Y0240189I-000492J0000000D01*
G01*
X0379755Y0240189D01*
G75*
G02*
X0379262Y0240681I0000000J0000492D01*
G01*
X0379262Y0241665D01*
G75*
G02*
X0379755Y0242158I0000492J0000000D01*
G01*
X0379755Y0242158D01*
G75*
G02*
X0380247Y0241665I0000000J-000492D01*
G01*
G37*
G36*
G01*
X0375916Y0241665D02*
X0375916Y0240681D01*
G75*
G02*
X0375424Y0240189I-000492J0000000D01*
G01*
X0375424Y0240189D01*
G75*
G02*
X0374932Y0240681I0000000J0000492D01*
G01*
X0374932Y0241665D01*
G75*
G02*
X0375424Y0242158I0000492J0000000D01*
G01*
X0375424Y0242158D01*
G75*
G02*
X0375916Y0241665I0000000J-000492D01*
G01*
G37*
G36*
G01*
X0371585Y0241665D02*
X0371585Y0240681D01*
G75*
G02*
X0371093Y0240189I-000492J0000000D01*
G01*
X0371093Y0240189D01*
G75*
G02*
X0370601Y0240681I0000000J0000492D01*
G01*
X0370601Y0241665D01*
G75*
G02*
X0371093Y0242158I0000492J0000000D01*
G01*
X0371093Y0242158D01*
G75*
G02*
X0371585Y0241665I0000000J-000492D01*
G01*
G37*
G36*
G01*
X0367255Y0241665D02*
X0367255Y0240681D01*
G75*
G02*
X0366762Y0240189I-000492J0000000D01*
G01*
X0366762Y0240189D01*
G75*
G02*
X0366270Y0240681I0000000J0000492D01*
G01*
X0366270Y0241665D01*
G75*
G02*
X0366762Y0242158I0000492J0000000D01*
G01*
X0366762Y0242158D01*
G75*
G02*
X0367255Y0241665I0000000J-000492D01*
G01*
G37*
G36*
G01*
X0362924Y0241665D02*
X0362924Y0240681D01*
G75*
G02*
X0362432Y0240189I-000492J0000000D01*
G01*
X0362432Y0240189D01*
G75*
G02*
X0361940Y0240681I0000000J0000492D01*
G01*
X0361940Y0241665D01*
G75*
G02*
X0362432Y0242158I0000492J0000000D01*
G01*
X0362432Y0242158D01*
G75*
G02*
X0362924Y0241665I0000000J-000492D01*
G01*
G37*
G36*
G01*
X0358593Y0241665D02*
X0358593Y0240681D01*
G75*
G02*
X0358101Y0240189I-000492J0000000D01*
G01*
X0358101Y0240189D01*
G75*
G02*
X0357609Y0240681I0000000J0000492D01*
G01*
X0357609Y0241665D01*
G75*
G02*
X0358101Y0242158I0000492J0000000D01*
G01*
X0358101Y0242158D01*
G75*
G02*
X0358593Y0241665I0000000J-000492D01*
G01*
G37*
G36*
G01*
X0354263Y0241665D02*
X0354263Y0240681D01*
G75*
G02*
X0353770Y0240189I-000492J0000000D01*
G01*
X0353770Y0240189D01*
G75*
G02*
X0353278Y0240681I0000000J0000492D01*
G01*
X0353278Y0241665D01*
G75*
G02*
X0353770Y0242158I0000492J0000000D01*
G01*
X0353770Y0242158D01*
G75*
G02*
X0354263Y0241665I0000000J-000492D01*
G01*
G37*
G36*
G01*
X0349932Y0241665D02*
X0349932Y0240681D01*
G75*
G02*
X0349440Y0240189I-000492J0000000D01*
G01*
X0349440Y0240189D01*
G75*
G02*
X0348948Y0240681I0000000J0000492D01*
G01*
X0348948Y0241665D01*
G75*
G02*
X0349440Y0242158I0000492J0000000D01*
G01*
X0349440Y0242158D01*
G75*
G02*
X0349932Y0241665I0000000J-000492D01*
G01*
G37*
G36*
G01*
X0345601Y0241665D02*
X0345601Y0240681D01*
G75*
G02*
X0345109Y0240189I-000492J0000000D01*
G01*
X0345109Y0240189D01*
G75*
G02*
X0344617Y0240681I0000000J0000492D01*
G01*
X0344617Y0241665D01*
G75*
G02*
X0345109Y0242158I0000492J0000000D01*
G01*
X0345109Y0242158D01*
G75*
G02*
X0345601Y0241665I0000000J-000492D01*
G01*
G37*
G36*
G01*
X0341270Y0241665D02*
X0341270Y0240681D01*
G75*
G02*
X0340778Y0240189I-000492J0000000D01*
G01*
X0340778Y0240189D01*
G75*
G02*
X0340286Y0240681I0000000J0000492D01*
G01*
X0340286Y0241665D01*
G75*
G02*
X0340778Y0242158I0000492J0000000D01*
G01*
X0340778Y0242158D01*
G75*
G02*
X0341270Y0241665I0000000J-000492D01*
G01*
G37*
M02*
