G04 #@! TF.GenerationSoftware,KiCad,Pcbnew,8.0.3-8.0.3-0~ubuntu22.04.1*
G04 #@! TF.CreationDate,2024-06-24T03:32:25+00:00*
G04 #@! TF.ProjectId,hellen64_NA6_94,68656c6c-656e-4363-945f-4e41365f3934,b*
G04 #@! TF.SameCoordinates,PX141ef50PYa2cc1bc*
G04 #@! TF.FileFunction,Paste,Bot*
G04 #@! TF.FilePolarity,Positive*
%FSLAX46Y46*%
G04 Gerber Fmt 4.6, Leading zero omitted, Abs format (unit mm)*
G04 Created by KiCad (PCBNEW 8.0.3-8.0.3-0~ubuntu22.04.1) date 2024-06-24 03:32:25*
%MOMM*%
%LPD*%
G01*
G04 APERTURE LIST*
%ADD10O,0.000001X0.000001*%
G04 APERTURE END LIST*
D10*
G04 #@! TO.C,M5*
X44564989Y72268006D03*
X45540001Y72168001D03*
X46409758Y72268006D03*
X47139995Y72268006D03*
X48034758Y72268006D03*
X50109758Y72268006D03*
X51009754Y72268006D03*
X51719996Y72268006D03*
X52739997Y72168006D03*
X53914996Y72168006D03*
X55264995Y72168006D03*
X56439994Y72168006D03*
X57339995Y71237767D03*
X57339995Y70543008D03*
X57339995Y69862768D03*
X57244997Y69043006D03*
X57339995Y67737769D03*
X57244997Y66768004D03*
X57339995Y65493006D03*
X57339995Y64843004D03*
X57244997Y63643004D03*
X57244997Y62568000D03*
X57244997Y61692998D03*
X57339995Y60868006D03*
X57339995Y55018005D03*
G04 #@! TD*
G04 #@! TO.C,M1*
G36*
G01*
X113932640Y61133024D02*
X113932640Y61383024D01*
G75*
G02*
X114057640Y61508024I125000J0D01*
G01*
X114057640Y61508024D01*
G75*
G02*
X114182640Y61383024I0J-125000D01*
G01*
X114182640Y61133024D01*
G75*
G02*
X114057640Y61008024I-125000J0D01*
G01*
X114057640Y61008024D01*
G75*
G02*
X113932640Y61133024I0J125000D01*
G01*
G37*
G36*
G01*
X113082636Y61383024D02*
X113082636Y61133024D01*
G75*
G02*
X112957636Y61008024I-125000J0D01*
G01*
X112957636Y61008024D01*
G75*
G02*
X112832636Y61133024I0J125000D01*
G01*
X112832636Y61383024D01*
G75*
G02*
X112957636Y61508024I125000J0D01*
G01*
X112957636Y61508024D01*
G75*
G02*
X113082636Y61383024I0J-125000D01*
G01*
G37*
G36*
G01*
X111982635Y61383024D02*
X111982635Y61133024D01*
G75*
G02*
X111857635Y61008024I-125000J0D01*
G01*
X111857635Y61008024D01*
G75*
G02*
X111732635Y61133024I0J125000D01*
G01*
X111732635Y61383024D01*
G75*
G02*
X111857635Y61508024I125000J0D01*
G01*
X111857635Y61508024D01*
G75*
G02*
X111982635Y61383024I0J-125000D01*
G01*
G37*
G36*
G01*
X110882638Y61383024D02*
X110882638Y61133024D01*
G75*
G02*
X110757638Y61008024I-125000J0D01*
G01*
X110757638Y61008024D01*
G75*
G02*
X110632638Y61133024I0J125000D01*
G01*
X110632638Y61383024D01*
G75*
G02*
X110757638Y61508024I125000J0D01*
G01*
X110757638Y61508024D01*
G75*
G02*
X110882638Y61383024I0J-125000D01*
G01*
G37*
G36*
G01*
X109782640Y61383024D02*
X109782640Y61133024D01*
G75*
G02*
X109657640Y61008024I-125000J0D01*
G01*
X109657640Y61008024D01*
G75*
G02*
X109532640Y61133024I0J125000D01*
G01*
X109532640Y61383024D01*
G75*
G02*
X109657640Y61508024I125000J0D01*
G01*
X109657640Y61508024D01*
G75*
G02*
X109782640Y61383024I0J-125000D01*
G01*
G37*
G36*
G01*
X108682642Y61383024D02*
X108682642Y61133024D01*
G75*
G02*
X108557642Y61008024I-125000J0D01*
G01*
X108557642Y61008024D01*
G75*
G02*
X108432642Y61133024I0J125000D01*
G01*
X108432642Y61383024D01*
G75*
G02*
X108557642Y61508024I125000J0D01*
G01*
X108557642Y61508024D01*
G75*
G02*
X108682642Y61383024I0J-125000D01*
G01*
G37*
G36*
G01*
X107582644Y61383024D02*
X107582644Y61133024D01*
G75*
G02*
X107457644Y61008024I-125000J0D01*
G01*
X107457644Y61008024D01*
G75*
G02*
X107332644Y61133024I0J125000D01*
G01*
X107332644Y61383024D01*
G75*
G02*
X107457644Y61508024I125000J0D01*
G01*
X107457644Y61508024D01*
G75*
G02*
X107582644Y61383024I0J-125000D01*
G01*
G37*
G36*
G01*
X106482646Y61383024D02*
X106482646Y61133024D01*
G75*
G02*
X106357646Y61008024I-125000J0D01*
G01*
X106357646Y61008024D01*
G75*
G02*
X106232646Y61133024I0J125000D01*
G01*
X106232646Y61383024D01*
G75*
G02*
X106357646Y61508024I125000J0D01*
G01*
X106357646Y61508024D01*
G75*
G02*
X106482646Y61383024I0J-125000D01*
G01*
G37*
G36*
G01*
X105382649Y61383024D02*
X105382649Y61133024D01*
G75*
G02*
X105257649Y61008024I-125000J0D01*
G01*
X105257649Y61008024D01*
G75*
G02*
X105132649Y61133024I0J125000D01*
G01*
X105132649Y61383024D01*
G75*
G02*
X105257649Y61508024I125000J0D01*
G01*
X105257649Y61508024D01*
G75*
G02*
X105382649Y61383024I0J-125000D01*
G01*
G37*
G36*
G01*
X104282651Y61383024D02*
X104282651Y61133024D01*
G75*
G02*
X104157651Y61008024I-125000J0D01*
G01*
X104157651Y61008024D01*
G75*
G02*
X104032651Y61133024I0J125000D01*
G01*
X104032651Y61383024D01*
G75*
G02*
X104157651Y61508024I125000J0D01*
G01*
X104157651Y61508024D01*
G75*
G02*
X104282651Y61383024I0J-125000D01*
G01*
G37*
G36*
G01*
X103182653Y61383024D02*
X103182653Y61133024D01*
G75*
G02*
X103057653Y61008024I-125000J0D01*
G01*
X103057653Y61008024D01*
G75*
G02*
X102932653Y61133024I0J125000D01*
G01*
X102932653Y61383024D01*
G75*
G02*
X103057653Y61508024I125000J0D01*
G01*
X103057653Y61508024D01*
G75*
G02*
X103182653Y61383024I0J-125000D01*
G01*
G37*
G36*
G01*
X102082655Y61383024D02*
X102082655Y61133024D01*
G75*
G02*
X101957655Y61008024I-125000J0D01*
G01*
X101957655Y61008024D01*
G75*
G02*
X101832655Y61133024I0J125000D01*
G01*
X101832655Y61383024D01*
G75*
G02*
X101957655Y61508024I125000J0D01*
G01*
X101957655Y61508024D01*
G75*
G02*
X102082655Y61383024I0J-125000D01*
G01*
G37*
G36*
G01*
X100982657Y61383024D02*
X100982657Y61133024D01*
G75*
G02*
X100857657Y61008024I-125000J0D01*
G01*
X100857657Y61008024D01*
G75*
G02*
X100732657Y61133024I0J125000D01*
G01*
X100732657Y61383024D01*
G75*
G02*
X100857657Y61508024I125000J0D01*
G01*
X100857657Y61508024D01*
G75*
G02*
X100982657Y61383024I0J-125000D01*
G01*
G37*
G36*
G01*
X99882660Y61383024D02*
X99882660Y61133024D01*
G75*
G02*
X99757660Y61008024I-125000J0D01*
G01*
X99757660Y61008024D01*
G75*
G02*
X99632660Y61133024I0J125000D01*
G01*
X99632660Y61383024D01*
G75*
G02*
X99757660Y61508024I125000J0D01*
G01*
X99757660Y61508024D01*
G75*
G02*
X99882660Y61383024I0J-125000D01*
G01*
G37*
G36*
G01*
X98782662Y61383024D02*
X98782662Y61133024D01*
G75*
G02*
X98657662Y61008024I-125000J0D01*
G01*
X98657662Y61008024D01*
G75*
G02*
X98532662Y61133024I0J125000D01*
G01*
X98532662Y61383024D01*
G75*
G02*
X98657662Y61508024I125000J0D01*
G01*
X98657662Y61508024D01*
G75*
G02*
X98782662Y61383024I0J-125000D01*
G01*
G37*
G36*
G01*
X97682664Y61383024D02*
X97682664Y61133024D01*
G75*
G02*
X97557664Y61008024I-125000J0D01*
G01*
X97557664Y61008024D01*
G75*
G02*
X97432664Y61133024I0J125000D01*
G01*
X97432664Y61383024D01*
G75*
G02*
X97557664Y61508024I125000J0D01*
G01*
X97557664Y61508024D01*
G75*
G02*
X97682664Y61383024I0J-125000D01*
G01*
G37*
G36*
G01*
X96582666Y61383024D02*
X96582666Y61133024D01*
G75*
G02*
X96457666Y61008024I-125000J0D01*
G01*
X96457666Y61008024D01*
G75*
G02*
X96332666Y61133024I0J125000D01*
G01*
X96332666Y61383024D01*
G75*
G02*
X96457666Y61508024I125000J0D01*
G01*
X96457666Y61508024D01*
G75*
G02*
X96582666Y61383024I0J-125000D01*
G01*
G37*
G36*
G01*
X95482668Y61383024D02*
X95482668Y61133024D01*
G75*
G02*
X95357668Y61008024I-125000J0D01*
G01*
X95357668Y61008024D01*
G75*
G02*
X95232668Y61133024I0J125000D01*
G01*
X95232668Y61383024D01*
G75*
G02*
X95357668Y61508024I125000J0D01*
G01*
X95357668Y61508024D01*
G75*
G02*
X95482668Y61383024I0J-125000D01*
G01*
G37*
G36*
G01*
X94382671Y61383024D02*
X94382671Y61133024D01*
G75*
G02*
X94257671Y61008024I-125000J0D01*
G01*
X94257671Y61008024D01*
G75*
G02*
X94132671Y61133024I0J125000D01*
G01*
X94132671Y61383024D01*
G75*
G02*
X94257671Y61508024I125000J0D01*
G01*
X94257671Y61508024D01*
G75*
G02*
X94382671Y61383024I0J-125000D01*
G01*
G37*
G36*
G01*
X93282673Y61383024D02*
X93282673Y61133024D01*
G75*
G02*
X93157673Y61008024I-125000J0D01*
G01*
X93157673Y61008024D01*
G75*
G02*
X93032673Y61133024I0J125000D01*
G01*
X93032673Y61383024D01*
G75*
G02*
X93157673Y61508024I125000J0D01*
G01*
X93157673Y61508024D01*
G75*
G02*
X93282673Y61383024I0J-125000D01*
G01*
G37*
G36*
G01*
X92182675Y61383024D02*
X92182675Y61133024D01*
G75*
G02*
X92057675Y61008024I-125000J0D01*
G01*
X92057675Y61008024D01*
G75*
G02*
X91932675Y61133024I0J125000D01*
G01*
X91932675Y61383024D01*
G75*
G02*
X92057675Y61508024I125000J0D01*
G01*
X92057675Y61508024D01*
G75*
G02*
X92182675Y61383024I0J-125000D01*
G01*
G37*
G36*
G01*
X91082677Y61383024D02*
X91082677Y61133024D01*
G75*
G02*
X90957677Y61008024I-125000J0D01*
G01*
X90957677Y61008024D01*
G75*
G02*
X90832677Y61133024I0J125000D01*
G01*
X90832677Y61383024D01*
G75*
G02*
X90957677Y61508024I125000J0D01*
G01*
X90957677Y61508024D01*
G75*
G02*
X91082677Y61383024I0J-125000D01*
G01*
G37*
G36*
G01*
X89982679Y61383024D02*
X89982679Y61133024D01*
G75*
G02*
X89857679Y61008024I-125000J0D01*
G01*
X89857679Y61008024D01*
G75*
G02*
X89732679Y61133024I0J125000D01*
G01*
X89732679Y61383024D01*
G75*
G02*
X89857679Y61508024I125000J0D01*
G01*
X89857679Y61508024D01*
G75*
G02*
X89982679Y61383024I0J-125000D01*
G01*
G37*
G36*
G01*
X88882682Y61383024D02*
X88882682Y61133024D01*
G75*
G02*
X88757682Y61008024I-125000J0D01*
G01*
X88757682Y61008024D01*
G75*
G02*
X88632682Y61133024I0J125000D01*
G01*
X88632682Y61383024D01*
G75*
G02*
X88757682Y61508024I125000J0D01*
G01*
X88757682Y61508024D01*
G75*
G02*
X88882682Y61383024I0J-125000D01*
G01*
G37*
G36*
G01*
X87782684Y61383024D02*
X87782684Y61133024D01*
G75*
G02*
X87657684Y61008024I-125000J0D01*
G01*
X87657684Y61008024D01*
G75*
G02*
X87532684Y61133024I0J125000D01*
G01*
X87532684Y61383024D01*
G75*
G02*
X87657684Y61508024I125000J0D01*
G01*
X87657684Y61508024D01*
G75*
G02*
X87782684Y61383024I0J-125000D01*
G01*
G37*
G36*
G01*
X86682686Y61383024D02*
X86682686Y61133024D01*
G75*
G02*
X86557686Y61008024I-125000J0D01*
G01*
X86557686Y61008024D01*
G75*
G02*
X86432686Y61133024I0J125000D01*
G01*
X86432686Y61383024D01*
G75*
G02*
X86557686Y61508024I125000J0D01*
G01*
X86557686Y61508024D01*
G75*
G02*
X86682686Y61383024I0J-125000D01*
G01*
G37*
G04 #@! TD*
M02*
